<svg width="717" height="447" viewBox="0 0 717 447" fill="none" xmlns="http://www.w3.org/2000/svg">
<g filter="url(#filter0_f_7178_131)">
<ellipse cx="358.347" cy="398.611" rx="314.236" ry="3.47222" fill="black"/>
</g>
<path d="M104.055 1H614.722C629.634 1 641.722 13.0883 641.722 28V380.722C641.722 382.379 640.379 383.722 638.722 383.722H80.0554C78.3986 383.722 77.0554 382.379 77.0554 380.722V28C77.0554 13.0883 89.1437 1 104.055 1Z" fill="#1A202C" stroke="#4A5568" stroke-width="2"/>
<path d="M79.5276 25.4721C79.5276 13.3219 89.3773 3.47217 101.528 3.47217H617.25C629.4 3.47217 639.25 13.3219 639.25 25.4722V370.139H79.5276V25.4721Z" fill="#C4C4C4"/>
<path d="M342.095 372.379H343.826L346.836 379.728H346.947L349.957 372.379H351.688V381.833H350.331V374.992H350.243L347.454 381.819H346.328L343.54 374.987H343.452V381.833H342.095V372.379ZM355.715 381.99C355.265 381.99 354.859 381.907 354.496 381.741C354.133 381.572 353.845 381.327 353.632 381.007C353.423 380.687 353.319 380.294 353.319 379.83C353.319 379.43 353.396 379.1 353.549 378.842C353.703 378.583 353.911 378.379 354.173 378.228C354.434 378.077 354.727 377.963 355.05 377.886C355.373 377.809 355.702 377.751 356.038 377.711C356.462 377.661 356.807 377.621 357.072 377.591C357.336 377.557 357.529 377.503 357.649 377.429C357.769 377.355 357.829 377.235 357.829 377.069V377.037C357.829 376.634 357.715 376.321 357.487 376.1C357.263 375.878 356.927 375.767 356.481 375.767C356.016 375.767 355.65 375.87 355.382 376.077C355.117 376.28 354.934 376.506 354.833 376.755L353.536 376.46C353.689 376.029 353.914 375.681 354.21 375.416C354.508 375.149 354.851 374.955 355.239 374.835C355.627 374.712 356.035 374.65 356.462 374.65C356.746 374.65 357.046 374.684 357.363 374.752C357.683 374.816 357.981 374.936 358.258 375.112C358.538 375.287 358.768 375.538 358.946 375.864C359.125 376.187 359.214 376.607 359.214 377.124V381.833H357.866V380.864H357.81C357.721 381.042 357.587 381.218 357.409 381.39C357.23 381.562 357.001 381.706 356.721 381.819C356.441 381.933 356.105 381.99 355.715 381.99ZM356.015 380.882C356.396 380.882 356.722 380.807 356.993 380.656C357.267 380.505 357.475 380.308 357.617 380.065C357.761 379.819 357.833 379.556 357.833 379.276V378.362C357.784 378.411 357.689 378.457 357.547 378.5C357.409 378.54 357.25 378.576 357.072 378.606C356.893 378.634 356.719 378.66 356.55 378.685C356.381 378.706 356.239 378.725 356.125 378.74C355.858 378.774 355.613 378.831 355.391 378.911C355.173 378.991 354.997 379.106 354.865 379.257C354.736 379.405 354.671 379.602 354.671 379.848C354.671 380.19 354.797 380.448 355.05 380.624C355.302 380.796 355.624 380.882 356.015 380.882ZM364.039 381.976C363.353 381.976 362.762 381.821 362.266 381.51C361.774 381.196 361.395 380.764 361.131 380.213C360.866 379.662 360.734 379.031 360.734 378.32C360.734 377.6 360.869 376.964 361.14 376.414C361.411 375.86 361.792 375.427 362.285 375.116C362.777 374.805 363.357 374.65 364.025 374.65C364.564 374.65 365.044 374.75 365.466 374.95C365.887 375.147 366.227 375.424 366.486 375.781C366.748 376.138 366.903 376.555 366.952 377.032H365.609C365.535 376.7 365.366 376.414 365.101 376.173C364.839 375.933 364.489 375.813 364.048 375.813C363.664 375.813 363.327 375.915 363.037 376.118C362.751 376.318 362.528 376.604 362.368 376.977C362.208 377.346 362.128 377.783 362.128 378.288C362.128 378.805 362.206 379.251 362.363 379.627C362.52 380.002 362.742 380.293 363.028 380.499C363.317 380.705 363.658 380.808 364.048 380.808C364.31 380.808 364.547 380.761 364.759 380.665C364.975 380.567 365.155 380.427 365.299 380.245C365.447 380.064 365.55 379.845 365.609 379.59H366.952C366.903 380.048 366.754 380.458 366.504 380.818C366.255 381.178 365.921 381.461 365.503 381.667C365.087 381.873 364.599 381.976 364.039 381.976ZM368.539 381.833V372.379H369.919V375.892H370.003C370.083 375.744 370.198 375.573 370.349 375.379C370.5 375.186 370.709 375.016 370.977 374.872C371.244 374.724 371.598 374.65 372.038 374.65C372.611 374.65 373.122 374.795 373.571 375.084C374.02 375.373 374.373 375.79 374.628 376.335C374.887 376.88 375.016 377.535 375.016 378.302C375.016 379.068 374.888 379.725 374.633 380.273C374.377 380.818 374.027 381.238 373.58 381.533C373.134 381.826 372.625 381.972 372.052 381.972C371.621 381.972 371.269 381.899 370.995 381.755C370.724 381.61 370.512 381.441 370.358 381.247C370.204 381.053 370.086 380.881 370.003 380.73H369.887V381.833H368.539ZM369.892 378.288C369.892 378.786 369.964 379.223 370.109 379.599C370.253 379.974 370.463 380.268 370.737 380.481C371.01 380.69 371.346 380.795 371.743 380.795C372.155 380.795 372.5 380.685 372.777 380.467C373.054 380.245 373.263 379.945 373.405 379.567C373.55 379.188 373.622 378.762 373.622 378.288C373.622 377.82 373.551 377.4 373.409 377.027C373.271 376.655 373.062 376.361 372.782 376.146C372.505 375.93 372.158 375.823 371.743 375.823C371.343 375.823 371.004 375.926 370.727 376.132C370.453 376.338 370.246 376.626 370.104 376.995C369.963 377.365 369.892 377.795 369.892 378.288ZM340.394 393.976C339.729 393.976 339.149 393.824 338.654 393.519C338.158 393.215 337.774 392.788 337.5 392.241C337.226 391.693 337.089 391.053 337.089 390.32C337.089 389.585 337.226 388.941 337.5 388.39C337.774 387.84 338.158 387.412 338.654 387.107C339.149 386.802 339.729 386.65 340.394 386.65C341.059 386.65 341.639 386.802 342.135 387.107C342.63 387.412 343.015 387.84 343.289 388.39C343.563 388.941 343.7 389.585 343.7 390.32C343.7 391.053 343.563 391.693 343.289 392.241C343.015 392.788 342.63 393.215 342.135 393.519C341.639 393.824 341.059 393.976 340.394 393.976ZM340.399 392.818C340.83 392.818 341.187 392.704 341.47 392.476C341.753 392.248 341.962 391.945 342.098 391.567C342.236 391.188 342.305 390.771 342.305 390.315C342.305 389.863 342.236 389.448 342.098 389.069C341.962 388.687 341.753 388.381 341.47 388.15C341.187 387.92 340.83 387.804 340.399 387.804C339.965 387.804 339.605 387.92 339.319 388.15C339.035 388.381 338.825 388.687 338.686 389.069C338.551 389.448 338.483 389.863 338.483 390.315C338.483 390.771 338.551 391.188 338.686 391.567C338.825 391.945 339.035 392.248 339.319 392.476C339.605 392.704 339.965 392.818 340.399 392.818ZM348.227 393.976C347.562 393.976 346.982 393.824 346.487 393.519C345.991 393.215 345.607 392.788 345.333 392.241C345.059 391.693 344.922 391.053 344.922 390.32C344.922 389.585 345.059 388.941 345.333 388.39C345.607 387.84 345.991 387.412 346.487 387.107C346.982 386.802 347.562 386.65 348.227 386.65C348.892 386.65 349.472 386.802 349.968 387.107C350.463 387.412 350.848 387.84 351.122 388.39C351.396 388.941 351.533 389.585 351.533 390.32C351.533 391.053 351.396 391.693 351.122 392.241C350.848 392.788 350.463 393.215 349.968 393.519C349.472 393.824 348.892 393.976 348.227 393.976ZM348.232 392.818C348.663 392.818 349.02 392.704 349.303 392.476C349.586 392.248 349.795 391.945 349.931 391.567C350.069 391.188 350.138 390.771 350.138 390.315C350.138 389.863 350.069 389.448 349.931 389.069C349.795 388.687 349.586 388.381 349.303 388.15C349.02 387.92 348.663 387.804 348.232 387.804C347.798 387.804 347.438 387.92 347.152 388.15C346.868 388.381 346.658 388.687 346.519 389.069C346.384 389.448 346.316 389.863 346.316 390.315C346.316 390.771 346.384 391.188 346.519 391.567C346.658 391.945 346.868 392.248 347.152 392.476C347.438 392.704 347.798 392.818 348.232 392.818ZM354.343 391.428L354.334 389.743H354.574L357.399 386.742H359.052L355.829 390.159H355.612L354.343 391.428ZM353.073 393.833V384.379H354.454V393.833H353.073ZM357.551 393.833L355.012 390.463L355.963 389.498L359.246 393.833H357.551ZM364.66 393.833H363.145L366.548 384.379H368.196L371.598 393.833H370.084L367.411 386.096H367.337L364.66 393.833ZM364.913 390.131H369.825V391.331H364.913V390.131ZM372.916 393.833V386.742H374.296V393.833H372.916ZM373.613 385.648C373.373 385.648 373.167 385.568 372.995 385.408C372.825 385.245 372.741 385.051 372.741 384.827C372.741 384.599 372.825 384.405 372.995 384.245C373.167 384.082 373.373 384 373.613 384C373.853 384 374.058 384.082 374.227 384.245C374.4 384.405 374.486 384.599 374.486 384.827C374.486 385.051 374.4 385.245 374.227 385.408C374.058 385.568 373.853 385.648 373.613 385.648ZM376.153 393.833V386.742H377.488V387.869H377.561C377.691 387.487 377.918 387.187 378.245 386.969C378.574 386.747 378.946 386.636 379.362 386.636C379.448 386.636 379.55 386.639 379.667 386.645C379.787 386.652 379.88 386.659 379.948 386.668V387.989C379.893 387.973 379.794 387.956 379.653 387.938C379.511 387.916 379.37 387.906 379.228 387.906C378.902 387.906 378.611 387.975 378.355 388.113C378.103 388.249 377.903 388.438 377.755 388.681C377.608 388.921 377.534 389.195 377.534 389.503V393.833H376.153Z" fill="#A0AEC0"/>
<path d="M8 383.945C8 382.84 8.89543 381.945 10 381.945H706C707.105 381.945 708 382.84 708 383.945V386.111H8V383.945Z" fill="#A3ACB1"/>
<path d="M8 383.945C8 382.84 8.89543 381.945 10 381.945H706C707.105 381.945 708 382.84 708 383.945V386.111H8V383.945Z" fill="url(#paint0_linear_7178_131)"/>
<path d="M8 386.111H708L705.826 386.55C679.794 391.8 653.303 394.445 626.746 394.445H83.9148C58.3817 394.445 32.9251 391.65 8 386.111V386.111Z" fill="#647279"/>
<path d="M8 386.111H708L705.826 386.55C679.794 391.8 653.303 394.445 626.746 394.445H83.9148C58.3817 394.445 32.9251 391.65 8 386.111V386.111Z" fill="url(#paint1_linear_7178_131)"/>
<path fill-rule="evenodd" clip-rule="evenodd" d="M306.634 381.945C306.991 384.271 305.258 386.111 310.778 386.111H405.917C411.436 386.111 409.703 384.271 410.06 381.945H306.634Z" fill="#96A1A8"/>
<path fill-rule="evenodd" clip-rule="evenodd" d="M306.634 381.945C306.991 384.271 305.258 386.111 310.778 386.111H405.917C411.436 386.111 409.703 384.271 410.06 381.945H306.634Z" fill="url(#paint2_linear_7178_131)"/>
<defs>
<filter id="filter0_f_7178_131" x="0.111084" y="351.139" width="716.472" height="94.9443" filterUnits="userSpaceOnUse" color-interpolation-filters="sRGB">
<feFlood flood-opacity="0" result="BackgroundImageFix"/>
<feBlend mode="normal" in="SourceGraphic" in2="BackgroundImageFix" result="shape"/>
<feGaussianBlur stdDeviation="22" result="effect1_foregroundBlur_7178_131"/>
</filter>
<linearGradient id="paint0_linear_7178_131" x1="8" y1="384.028" x2="708" y2="384.028" gradientUnits="userSpaceOnUse">
<stop stop-color="#0D1012"/>
<stop offset="0.0295345" stop-color="#CAD4DB"/>
<stop offset="0.0625" stop-color="#242729"/>
<stop offset="0.133609" stop-color="#A3ACB1"/>
<stop offset="0.865967" stop-color="#A3ACB1"/>
<stop offset="0.941937" stop-color="#242729"/>
<stop offset="0.971275" stop-color="#CAD4DB"/>
<stop offset="0.996436" stop-color="#0D1012"/>
</linearGradient>
<linearGradient id="paint1_linear_7178_131" x1="358" y1="386.111" x2="358" y2="394.445" gradientUnits="userSpaceOnUse">
<stop stop-color="#7A7F83"/>
<stop offset="1" stop-color="#0B0B0E"/>
</linearGradient>
<linearGradient id="paint2_linear_7178_131" x1="311.819" y1="384.474" x2="406.958" y2="384.474" gradientUnits="userSpaceOnUse">
<stop stop-color="#3C3C3C"/>
<stop offset="0.317518" stop-color="#3C3C3C" stop-opacity="0"/>
<stop offset="0.660584" stop-color="#3C3C3C" stop-opacity="0"/>
<stop offset="1" stop-color="#444444"/>
</linearGradient>
</defs>
</svg>
