<svg width="130" height="45" viewBox="0 0 130 45" fill="none" xmlns="http://www.w3.org/2000/svg">
<path d="M11.432 9.08C14.952 9.08 17.64 10.472 19.496 13.256L20.312 9.656H28.088V44.456H18.536V32.696C16.744 34.616 14.376 35.576 11.432 35.576C8.008 35.576 5.368 34.472 3.512 32.264C1.656 30.024 0.728 26.728 0.728 22.376C0.728 17.992 1.656 14.68 3.512 12.44C5.368 10.2 8.008 9.08 11.432 9.08ZM14.408 16.136C11.656 16.136 10.28 17.768 10.28 21.032V23.576C10.28 26.872 11.656 28.52 14.408 28.52C15.816 28.52 16.872 28.024 17.576 27.032C18.28 26.008 18.632 24.696 18.632 23.096V21.512C18.632 19.912 18.28 18.616 17.576 17.624C16.872 16.632 15.816 16.136 14.408 16.136ZM52.2796 35L51.6556 31.16C50.6636 32.536 49.3516 33.624 47.7196 34.424C46.1196 35.192 44.4236 35.576 42.6316 35.576C39.6876 35.576 37.4796 34.76 36.0076 33.128C34.5356 31.496 33.7996 29.144 33.7996 26.072V9.656H43.3516V24.92C43.3516 26.008 43.6236 26.888 44.1676 27.56C44.7436 28.2 45.5436 28.52 46.5676 28.52C47.7516 28.52 48.7116 28.136 49.4476 27.368C50.1836 26.6 50.5516 25.656 50.5516 24.536V9.656H60.1036V35H52.2796ZM66.2473 6.68V0.199999H75.7993V6.68H66.2473ZM66.2473 35V9.656H75.7993V35H66.2473ZM82.2316 35V0.199999H91.7836V35H82.2316ZM114.776 9.656V16.136H109.4V25.784C109.4 26.936 109.592 27.784 109.976 28.328C110.36 28.84 111.064 29.096 112.088 29.096H114.776V34.712C114.008 34.968 113.016 35.176 111.8 35.336C110.584 35.496 109.528 35.576 108.632 35.576C105.816 35.576 103.64 35.064 102.104 34.04C100.6 33.016 99.848 31.272 99.848 28.808V16.136H96.296V9.656H100.232L102.296 1.976H109.4V9.656H114.776ZM119.256 35V25.448H129.432V35H119.256Z" fill="#020207"/>
</svg>
