<svg width="1212" height="107" viewBox="0 0 1212 107" fill="none" xmlns="http://www.w3.org/2000/svg">
<path fill-rule="evenodd" clip-rule="evenodd" d="M1021 61.1477H191V59.1477H1021V61.1477Z" fill="#00CC99"/>
<path d="M165.58 3.98293C165.494 3.26324 165.149 2.70452 164.543 2.3068C163.937 1.90907 163.193 1.71021 162.313 1.71021C161.669 1.71021 161.105 1.81437 160.622 2.02271C160.144 2.23104 159.77 2.5175 159.5 2.88208C159.235 3.24666 159.102 3.66096 159.102 4.12498C159.102 4.51324 159.195 4.84704 159.379 5.1264C159.569 5.40102 159.81 5.63066 160.104 5.81532C160.397 5.99524 160.705 6.14439 161.027 6.26276C161.349 6.3764 161.645 6.46873 161.915 6.53975L163.392 6.93748C163.771 7.03691 164.192 7.17422 164.656 7.34941C165.125 7.5246 165.572 7.76371 165.999 8.06674C166.429 8.36504 166.785 8.74856 167.064 9.21731C167.343 9.68606 167.483 10.2613 167.483 10.9432C167.483 11.7291 167.277 12.4394 166.865 13.0738C166.458 13.7083 165.861 14.2126 165.075 14.5866C164.294 14.9607 163.345 15.1477 162.227 15.1477C161.186 15.1477 160.284 14.9796 159.521 14.6434C158.764 14.3073 158.167 13.8385 157.732 13.2372C157.301 12.6359 157.057 11.9375 157 11.142H158.818C158.866 11.6913 159.05 12.1458 159.372 12.5057C159.699 12.8608 160.111 13.1259 160.608 13.3011C161.11 13.4716 161.65 13.5568 162.227 13.5568C162.9 13.5568 163.503 13.4479 164.038 13.2301C164.573 13.0076 164.997 12.6998 165.31 12.3068C165.622 11.9091 165.778 11.4451 165.778 10.9148C165.778 10.4318 165.643 10.0388 165.374 9.73577C165.104 9.43274 164.749 9.18653 164.308 8.99714C163.868 8.80774 163.392 8.64202 162.881 8.49998L161.091 7.98862C159.955 7.66191 159.055 7.19553 158.392 6.58947C157.729 5.98341 157.398 5.19032 157.398 4.21021C157.398 3.39581 157.618 2.68558 158.058 2.07952C158.503 1.46873 159.1 0.995243 159.848 0.659069C160.601 0.31816 161.441 0.147705 162.369 0.147705C163.307 0.147705 164.14 0.315792 164.869 0.651967C165.598 0.983406 166.176 1.43795 166.602 2.0156C167.033 2.59325 167.26 3.24903 167.284 3.98293H165.58Z" fill="#535353"/>
<path d="M174.896 3.98293V5.40339H169.243V3.98293H174.896ZM170.89 1.3693H172.566V11.767C172.566 12.2405 172.635 12.5956 172.772 12.8324C172.914 13.0644 173.094 13.2206 173.312 13.3011C173.535 13.3769 173.769 13.4148 174.015 13.4148C174.2 13.4148 174.351 13.4053 174.47 13.3863C174.588 13.3627 174.683 13.3437 174.754 13.3295L175.095 14.8352C174.981 14.8778 174.823 14.9204 174.619 14.963C174.415 15.0104 174.157 15.0341 173.845 15.0341C173.371 15.0341 172.907 14.9323 172.453 14.7287C172.003 14.5251 171.629 14.2149 171.331 13.7983C171.037 13.3816 170.89 12.856 170.89 12.2216V1.3693Z" fill="#535353"/>
<path d="M181.874 15.1193C180.823 15.1193 179.916 14.8873 179.154 14.4233C178.396 13.9545 177.811 13.3011 177.4 12.463C176.992 11.6202 176.789 10.6401 176.789 9.52271C176.789 8.40528 176.992 7.42043 177.4 6.56816C177.811 5.71115 178.384 5.04354 179.118 4.56532C179.857 4.08236 180.719 3.84089 181.703 3.84089C182.272 3.84089 182.833 3.93558 183.387 4.12498C183.941 4.31437 184.445 4.62214 184.9 5.04827C185.354 5.46968 185.716 6.02839 185.986 6.72441C186.256 7.42043 186.391 8.27744 186.391 9.29543V10.0057H177.982V8.5568H184.686C184.686 7.94127 184.563 7.39202 184.317 6.90907C184.076 6.42611 183.73 6.04496 183.28 5.7656C182.835 5.48625 182.31 5.34657 181.703 5.34657C181.036 5.34657 180.458 5.51229 179.971 5.84373C179.488 6.17043 179.116 6.59657 178.855 7.12214C178.595 7.64771 178.465 8.21115 178.465 8.81248V9.77839C178.465 10.6023 178.607 11.3006 178.891 11.8736C179.18 12.4417 179.58 12.875 180.091 13.1733C180.603 13.4668 181.197 13.6136 181.874 13.6136C182.314 13.6136 182.712 13.5521 183.067 13.429C183.427 13.3011 183.737 13.1117 183.998 12.8608C184.258 12.6051 184.459 12.2879 184.601 11.9091L186.221 12.3636C186.05 12.9129 185.764 13.3958 185.361 13.8125C184.959 14.2244 184.462 14.5464 183.87 14.7784C183.278 15.0057 182.613 15.1193 181.874 15.1193Z" fill="#535353"/>
<path d="M188.941 18.9829V3.98293H190.56V5.71589H190.759C190.882 5.52649 191.052 5.28502 191.27 4.99146C191.493 4.69316 191.81 4.42801 192.222 4.196C192.639 3.95926 193.202 3.84089 193.912 3.84089C194.831 3.84089 195.641 4.07053 196.341 4.52981C197.042 4.98909 197.589 5.64013 197.982 6.48293C198.375 7.32574 198.571 8.32005 198.571 9.46589C198.571 10.6212 198.375 11.6226 197.982 12.4701C197.589 13.313 197.044 13.9664 196.348 14.4304C195.652 14.8897 194.85 15.1193 193.941 15.1193C193.24 15.1193 192.679 15.0033 192.257 14.7713C191.836 14.5345 191.512 14.267 191.284 13.9687C191.057 13.6657 190.882 13.4148 190.759 13.2159H190.617V18.9829H188.941ZM190.588 9.43748C190.588 10.2613 190.709 10.9881 190.951 11.6179C191.192 12.2429 191.545 12.7329 192.009 13.088C192.473 13.4384 193.041 13.6136 193.713 13.6136C194.414 13.6136 194.999 13.429 195.468 13.0596C195.941 12.6856 196.296 12.1837 196.533 11.554C196.775 10.9195 196.895 10.214 196.895 9.43748C196.895 8.67043 196.777 7.97915 196.54 7.36362C196.308 6.74335 195.955 6.25329 195.482 5.89344C195.013 5.52886 194.424 5.34657 193.713 5.34657C193.032 5.34657 192.459 5.51939 191.995 5.86504C191.531 6.20594 191.18 6.68416 190.944 7.29969C190.707 7.91049 190.588 8.62308 190.588 9.43748Z" fill="#535353"/>
<path d="M211.838 0.346569V14.892H210.077V2.19316H209.992L206.441 4.55111V2.76134L210.077 0.346569H211.838Z" fill="#535353"/>
<g filter="url(#filter0_d_6937_80)">
<path d="M204.419 48.9829C204.419 60.0286 195.465 68.9829 184.419 68.9829C173.374 68.9829 164.419 60.0286 164.419 48.9829C164.419 37.9372 173.374 28.9829 184.419 28.9829C195.465 28.9829 204.419 37.9372 204.419 48.9829Z" fill="white"/>
</g>
<path d="M187.419 48.9829C187.419 50.6398 186.076 51.9829 184.419 51.9829C182.763 51.9829 181.419 50.6398 181.419 48.9829C181.419 47.3261 182.763 45.9829 184.419 45.9829C186.076 45.9829 187.419 47.3261 187.419 48.9829Z" fill="#00CC99"/>
<path d="M580.58 3.98293C580.494 3.26324 580.149 2.70452 579.543 2.3068C578.937 1.90907 578.193 1.71021 577.313 1.71021C576.669 1.71021 576.105 1.81437 575.622 2.02271C575.144 2.23104 574.77 2.5175 574.5 2.88208C574.235 3.24666 574.102 3.66096 574.102 4.12498C574.102 4.51324 574.195 4.84704 574.379 5.1264C574.569 5.40102 574.81 5.63066 575.104 5.81532C575.397 5.99524 575.705 6.14439 576.027 6.26276C576.349 6.3764 576.645 6.46873 576.915 6.53975L578.392 6.93748C578.771 7.03691 579.192 7.17422 579.656 7.34941C580.125 7.5246 580.572 7.76371 580.999 8.06674C581.429 8.36504 581.785 8.74856 582.064 9.21731C582.343 9.68606 582.483 10.2613 582.483 10.9432C582.483 11.7291 582.277 12.4394 581.865 13.0738C581.458 13.7083 580.861 14.2126 580.075 14.5866C579.294 14.9607 578.345 15.1477 577.227 15.1477C576.186 15.1477 575.284 14.9796 574.521 14.6434C573.764 14.3073 573.167 13.8385 572.732 13.2372C572.301 12.6359 572.057 11.9375 572 11.142H573.818C573.866 11.6913 574.05 12.1458 574.372 12.5057C574.699 12.8608 575.111 13.1259 575.608 13.3011C576.11 13.4716 576.65 13.5568 577.227 13.5568C577.9 13.5568 578.503 13.4479 579.038 13.2301C579.573 13.0076 579.997 12.6998 580.31 12.3068C580.622 11.9091 580.778 11.4451 580.778 10.9148C580.778 10.4318 580.643 10.0388 580.374 9.73577C580.104 9.43274 579.749 9.18653 579.308 8.99714C578.868 8.80774 578.392 8.64202 577.881 8.49998L576.091 7.98862C574.955 7.66191 574.055 7.19553 573.392 6.58947C572.729 5.98341 572.398 5.19032 572.398 4.21021C572.398 3.39581 572.618 2.68558 573.058 2.07952C573.503 1.46873 574.1 0.995243 574.848 0.659069C575.601 0.31816 576.441 0.147705 577.369 0.147705C578.307 0.147705 579.14 0.315792 579.869 0.651967C580.598 0.983406 581.176 1.43795 581.602 2.0156C582.033 2.59325 582.26 3.24903 582.284 3.98293H580.58Z" fill="#535353"/>
<path d="M589.896 3.98293V5.40339H584.243V3.98293H589.896ZM585.89 1.3693H587.566V11.767C587.566 12.2405 587.635 12.5956 587.772 12.8324C587.914 13.0644 588.094 13.2206 588.312 13.3011C588.535 13.3769 588.769 13.4148 589.015 13.4148C589.2 13.4148 589.351 13.4053 589.47 13.3863C589.588 13.3627 589.683 13.3437 589.754 13.3295L590.095 14.8352C589.981 14.8778 589.823 14.9204 589.619 14.963C589.415 15.0104 589.157 15.0341 588.845 15.0341C588.371 15.0341 587.907 14.9323 587.453 14.7287C587.003 14.5251 586.629 14.2149 586.331 13.7983C586.037 13.3816 585.89 12.856 585.89 12.2216V1.3693Z" fill="#535353"/>
<path d="M596.874 15.1193C595.823 15.1193 594.916 14.8873 594.154 14.4233C593.396 13.9545 592.811 13.3011 592.4 12.463C591.992 11.6202 591.789 10.6401 591.789 9.52271C591.789 8.40528 591.992 7.42043 592.4 6.56816C592.811 5.71115 593.384 5.04354 594.118 4.56532C594.857 4.08236 595.719 3.84089 596.703 3.84089C597.272 3.84089 597.833 3.93558 598.387 4.12498C598.941 4.31437 599.445 4.62214 599.9 5.04827C600.354 5.46968 600.716 6.02839 600.986 6.72441C601.256 7.42043 601.391 8.27744 601.391 9.29543V10.0057H592.982V8.5568H599.686C599.686 7.94127 599.563 7.39202 599.317 6.90907C599.076 6.42611 598.73 6.04496 598.28 5.7656C597.835 5.48625 597.31 5.34657 596.703 5.34657C596.036 5.34657 595.458 5.51229 594.971 5.84373C594.488 6.17043 594.116 6.59657 593.855 7.12214C593.595 7.64771 593.465 8.21115 593.465 8.81248V9.77839C593.465 10.6023 593.607 11.3006 593.891 11.8736C594.18 12.4417 594.58 12.875 595.091 13.1733C595.603 13.4668 596.197 13.6136 596.874 13.6136C597.314 13.6136 597.712 13.5521 598.067 13.429C598.427 13.3011 598.737 13.1117 598.998 12.8608C599.258 12.6051 599.459 12.2879 599.601 11.9091L601.221 12.3636C601.05 12.9129 600.764 13.3958 600.361 13.8125C599.959 14.2244 599.462 14.5464 598.87 14.7784C598.278 15.0057 597.613 15.1193 596.874 15.1193Z" fill="#535353"/>
<path d="M603.941 18.9829V3.98293H605.56V5.71589H605.759C605.882 5.52649 606.052 5.28502 606.27 4.99146C606.493 4.69316 606.81 4.42801 607.222 4.196C607.639 3.95926 608.202 3.84089 608.912 3.84089C609.831 3.84089 610.641 4.07053 611.341 4.52981C612.042 4.98909 612.589 5.64013 612.982 6.48293C613.375 7.32574 613.571 8.32005 613.571 9.46589C613.571 10.6212 613.375 11.6226 612.982 12.4701C612.589 13.313 612.044 13.9664 611.348 14.4304C610.652 14.8897 609.85 15.1193 608.941 15.1193C608.24 15.1193 607.679 15.0033 607.257 14.7713C606.836 14.5345 606.512 14.267 606.284 13.9687C606.057 13.6657 605.882 13.4148 605.759 13.2159H605.617V18.9829H603.941ZM605.588 9.43748C605.588 10.2613 605.709 10.9881 605.951 11.6179C606.192 12.2429 606.545 12.7329 607.009 13.088C607.473 13.4384 608.041 13.6136 608.713 13.6136C609.414 13.6136 609.999 13.429 610.468 13.0596C610.941 12.6856 611.296 12.1837 611.533 11.554C611.775 10.9195 611.895 10.214 611.895 9.43748C611.895 8.67043 611.777 7.97915 611.54 7.36362C611.308 6.74335 610.955 6.25329 610.482 5.89344C610.013 5.52886 609.424 5.34657 608.713 5.34657C608.032 5.34657 607.459 5.51939 606.995 5.86504C606.531 6.20594 606.18 6.68416 605.944 7.29969C605.707 7.91049 605.588 8.62308 605.588 9.43748Z" fill="#535353"/>
<path d="M621.725 14.892V13.6136L626.526 8.35793C627.089 7.7424 627.553 7.20736 627.918 6.75282C628.283 6.29354 628.552 5.86267 628.728 5.46021C628.908 5.05301 628.998 4.62687 628.998 4.1818C628.998 3.67043 628.874 3.22772 628.628 2.85367C628.387 2.47962 628.055 2.19079 627.634 1.98719C627.212 1.7836 626.739 1.6818 626.213 1.6818C625.655 1.6818 625.167 1.7978 624.75 2.02981C624.338 2.25708 624.019 2.57668 623.792 2.98861C623.569 3.40055 623.458 3.8835 623.458 4.43748H621.782C621.782 3.58521 621.978 2.8371 622.371 2.19316C622.764 1.54922 623.299 1.04733 623.976 0.687478C624.658 0.32763 625.423 0.147705 626.27 0.147705C627.123 0.147705 627.878 0.32763 628.536 0.687478C629.194 1.04733 629.71 1.53265 630.084 2.14344C630.458 2.75424 630.645 3.43369 630.645 4.1818C630.645 4.71683 630.548 5.24004 630.354 5.7514C630.165 6.25803 629.833 6.82384 629.36 7.44884C628.891 8.06911 628.24 8.82668 627.407 9.72157L624.14 13.2159V13.3295H630.901V14.892H621.725Z" fill="#535353"/>
<g filter="url(#filter1_d_6937_80)">
<path d="M621.451 48.9829C621.451 60.0286 612.496 68.9829 601.451 68.9829C590.405 68.9829 581.451 60.0286 581.451 48.9829C581.451 37.9372 590.405 28.9829 601.451 28.9829C612.496 28.9829 621.451 37.9372 621.451 48.9829Z" fill="white"/>
</g>
<path d="M604.451 48.9829C604.451 50.6398 603.108 51.9829 601.451 51.9829C599.794 51.9829 598.451 50.6398 598.451 48.9829C598.451 47.3261 599.794 45.9829 601.451 45.9829C603.108 45.9829 604.451 47.3261 604.451 48.9829Z" fill="#00CC99"/>
<path d="M998.58 3.98293C998.494 3.26324 998.149 2.70452 997.543 2.3068C996.937 1.90907 996.193 1.71021 995.313 1.71021C994.669 1.71021 994.105 1.81437 993.622 2.02271C993.144 2.23104 992.77 2.5175 992.5 2.88208C992.235 3.24666 992.102 3.66096 992.102 4.12498C992.102 4.51324 992.195 4.84704 992.379 5.1264C992.569 5.40102 992.81 5.63066 993.104 5.81532C993.397 5.99524 993.705 6.14439 994.027 6.26276C994.349 6.3764 994.645 6.46873 994.915 6.53975L996.392 6.93748C996.771 7.03691 997.192 7.17422 997.656 7.34941C998.125 7.5246 998.572 7.76371 998.999 8.06674C999.429 8.36504 999.785 8.74856 1000.06 9.21731C1000.34 9.68606 1000.48 10.2613 1000.48 10.9432C1000.48 11.7291 1000.28 12.4394 999.865 13.0738C999.458 13.7083 998.861 14.2126 998.075 14.5866C997.294 14.9607 996.345 15.1477 995.227 15.1477C994.186 15.1477 993.284 14.9796 992.521 14.6434C991.764 14.3073 991.167 13.8385 990.732 13.2372C990.301 12.6359 990.057 11.9375 990 11.142H991.818C991.866 11.6913 992.05 12.1458 992.372 12.5057C992.699 12.8608 993.111 13.1259 993.608 13.3011C994.11 13.4716 994.65 13.5568 995.227 13.5568C995.9 13.5568 996.503 13.4479 997.038 13.2301C997.573 13.0076 997.997 12.6998 998.31 12.3068C998.622 11.9091 998.778 11.4451 998.778 10.9148C998.778 10.4318 998.643 10.0388 998.374 9.73577C998.104 9.43274 997.749 9.18653 997.308 8.99714C996.868 8.80774 996.392 8.64202 995.881 8.49998L994.091 7.98862C992.955 7.66191 992.055 7.19553 991.392 6.58947C990.729 5.98341 990.398 5.19032 990.398 4.21021C990.398 3.39581 990.618 2.68558 991.058 2.07952C991.503 1.46873 992.1 0.995243 992.848 0.659069C993.601 0.31816 994.441 0.147705 995.369 0.147705C996.307 0.147705 997.14 0.315792 997.869 0.651967C998.598 0.983406 999.176 1.43795 999.602 2.0156C1000.03 2.59325 1000.26 3.24903 1000.28 3.98293H998.58Z" fill="#535353"/>
<path d="M1007.9 3.98293V5.40339H1002.24V3.98293H1007.9ZM1003.89 1.3693H1005.57V11.767C1005.57 12.2405 1005.64 12.5956 1005.77 12.8324C1005.91 13.0644 1006.09 13.2206 1006.31 13.3011C1006.53 13.3769 1006.77 13.4148 1007.02 13.4148C1007.2 13.4148 1007.35 13.4053 1007.47 13.3863C1007.59 13.3627 1007.68 13.3437 1007.75 13.3295L1008.09 14.8352C1007.98 14.8778 1007.82 14.9204 1007.62 14.963C1007.42 15.0104 1007.16 15.0341 1006.84 15.0341C1006.37 15.0341 1005.91 14.9323 1005.45 14.7287C1005 14.5251 1004.63 14.2149 1004.33 13.7983C1004.04 13.3816 1003.89 12.856 1003.89 12.2216V1.3693Z" fill="#535353"/>
<path d="M1014.87 15.1193C1013.82 15.1193 1012.92 14.8873 1012.15 14.4233C1011.4 13.9545 1010.81 13.3011 1010.4 12.463C1009.99 11.6202 1009.79 10.6401 1009.79 9.52271C1009.79 8.40528 1009.99 7.42043 1010.4 6.56816C1010.81 5.71115 1011.38 5.04354 1012.12 4.56532C1012.86 4.08236 1013.72 3.84089 1014.7 3.84089C1015.27 3.84089 1015.83 3.93558 1016.39 4.12498C1016.94 4.31437 1017.44 4.62214 1017.9 5.04827C1018.35 5.46968 1018.72 6.02839 1018.99 6.72441C1019.26 7.42043 1019.39 8.27744 1019.39 9.29543V10.0057H1010.98V8.5568H1017.69C1017.69 7.94127 1017.56 7.39202 1017.32 6.90907C1017.08 6.42611 1016.73 6.04496 1016.28 5.7656C1015.84 5.48625 1015.31 5.34657 1014.7 5.34657C1014.04 5.34657 1013.46 5.51229 1012.97 5.84373C1012.49 6.17043 1012.12 6.59657 1011.86 7.12214C1011.6 7.64771 1011.46 8.21115 1011.46 8.81248V9.77839C1011.46 10.6023 1011.61 11.3006 1011.89 11.8736C1012.18 12.4417 1012.58 12.875 1013.09 13.1733C1013.6 13.4668 1014.2 13.6136 1014.87 13.6136C1015.31 13.6136 1015.71 13.5521 1016.07 13.429C1016.43 13.3011 1016.74 13.1117 1017 12.8608C1017.26 12.6051 1017.46 12.2879 1017.6 11.9091L1019.22 12.3636C1019.05 12.9129 1018.76 13.3958 1018.36 13.8125C1017.96 14.2244 1017.46 14.5464 1016.87 14.7784C1016.28 15.0057 1015.61 15.1193 1014.87 15.1193Z" fill="#535353"/>
<path d="M1021.94 18.9829V3.98293H1023.56V5.71589H1023.76C1023.88 5.52649 1024.05 5.28502 1024.27 4.99146C1024.49 4.69316 1024.81 4.42801 1025.22 4.196C1025.64 3.95926 1026.2 3.84089 1026.91 3.84089C1027.83 3.84089 1028.64 4.07053 1029.34 4.52981C1030.04 4.98909 1030.59 5.64013 1030.98 6.48293C1031.37 7.32574 1031.57 8.32005 1031.57 9.46589C1031.57 10.6212 1031.37 11.6226 1030.98 12.4701C1030.59 13.313 1030.04 13.9664 1029.35 14.4304C1028.65 14.8897 1027.85 15.1193 1026.94 15.1193C1026.24 15.1193 1025.68 15.0033 1025.26 14.7713C1024.84 14.5345 1024.51 14.267 1024.28 13.9687C1024.06 13.6657 1023.88 13.4148 1023.76 13.2159H1023.62V18.9829H1021.94ZM1023.59 9.43748C1023.59 10.2613 1023.71 10.9881 1023.95 11.6179C1024.19 12.2429 1024.54 12.7329 1025.01 13.088C1025.47 13.4384 1026.04 13.6136 1026.71 13.6136C1027.41 13.6136 1028 13.429 1028.47 13.0596C1028.94 12.6856 1029.3 12.1837 1029.53 11.554C1029.77 10.9195 1029.9 10.214 1029.9 9.43748C1029.9 8.67043 1029.78 7.97915 1029.54 7.36362C1029.31 6.74335 1028.96 6.25329 1028.48 5.89344C1028.01 5.52886 1027.42 5.34657 1026.71 5.34657C1026.03 5.34657 1025.46 5.51939 1024.99 5.86504C1024.53 6.20594 1024.18 6.68416 1023.94 7.29969C1023.71 7.91049 1023.59 8.62308 1023.59 9.43748Z" fill="#535353"/>
<path d="M1044.64 15.0909C1043.7 15.0909 1042.87 14.9299 1042.13 14.6079C1041.4 14.286 1040.82 13.8385 1040.39 13.2656C1039.97 12.688 1039.73 12.018 1039.7 11.2557H1041.49C1041.52 11.7244 1041.69 12.1292 1041.97 12.4701C1042.25 12.8063 1042.62 13.0667 1043.08 13.2514C1043.54 13.4361 1044.05 13.5284 1044.61 13.5284C1045.24 13.5284 1045.79 13.4195 1046.27 13.2017C1046.76 12.9839 1047.13 12.6809 1047.41 12.2926C1047.68 11.9043 1047.82 11.4545 1047.82 10.9432C1047.82 10.4081 1047.69 9.937 1047.42 9.52981C1047.16 9.11788 1046.77 8.79591 1046.26 8.5639C1045.75 8.33189 1045.12 8.21589 1044.38 8.21589H1043.22V6.65339H1044.38C1044.96 6.65339 1045.47 6.54922 1045.9 6.34089C1046.34 6.13255 1046.69 5.83899 1046.93 5.46021C1047.18 5.08142 1047.31 4.63634 1047.31 4.12498C1047.31 3.63255 1047.2 3.20405 1046.98 2.83947C1046.77 2.47488 1046.46 2.19079 1046.06 1.98719C1045.67 1.7836 1045.2 1.6818 1044.67 1.6818C1044.17 1.6818 1043.69 1.77413 1043.25 1.95879C1042.81 2.13871 1042.45 2.40149 1042.17 2.74714C1041.89 3.08805 1041.74 3.49998 1041.71 3.98293H1040.01C1040.04 3.22062 1040.27 2.55301 1040.7 1.98009C1041.13 1.40244 1041.69 0.952629 1042.39 0.63066C1043.09 0.30869 1043.86 0.147705 1044.7 0.147705C1045.6 0.147705 1046.37 0.329997 1047.01 0.69458C1047.66 1.05443 1048.15 1.53028 1048.5 2.12214C1048.84 2.71399 1049.01 3.3532 1049.01 4.03975C1049.01 4.85888 1048.8 5.55727 1048.37 6.13492C1047.94 6.71257 1047.36 7.11267 1046.63 7.33521V7.44884C1047.55 7.60036 1048.26 7.99098 1048.78 8.62072C1049.3 9.24572 1049.55 10.0199 1049.55 10.9432C1049.55 11.7339 1049.34 12.4441 1048.91 13.0738C1048.48 13.6988 1047.9 14.1913 1047.16 14.5511C1046.42 14.911 1045.58 15.0909 1044.64 15.0909Z" fill="#535353"/>
<g filter="url(#filter2_d_6937_80)">
<path d="M1039.78 48.9829C1039.78 60.0286 1030.82 68.9829 1019.78 68.9829C1008.73 68.9829 999.777 60.0286 999.777 48.9829C999.777 37.9372 1008.73 28.9829 1019.78 28.9829C1030.82 28.9829 1039.78 37.9372 1039.78 48.9829Z" fill="white"/>
</g>
<path d="M1022.78 48.9829C1022.78 50.6398 1021.43 51.9829 1019.78 51.9829C1018.12 51.9829 1016.78 50.6398 1016.78 48.9829C1016.78 47.3261 1018.12 45.9829 1019.78 45.9829C1021.43 45.9829 1022.78 47.3261 1022.78 48.9829Z" fill="#00CC99"/>
<defs>
<filter id="filter0_d_6937_80" x="134.419" y="6.98291" width="100" height="100" filterUnits="userSpaceOnUse" color-interpolation-filters="sRGB">
<feFlood flood-opacity="0" result="BackgroundImageFix"/>
<feColorMatrix in="SourceAlpha" type="matrix" values="0 0 0 0 0 0 0 0 0 0 0 0 0 0 0 0 0 0 127 0" result="hardAlpha"/>
<feOffset dy="8"/>
<feGaussianBlur stdDeviation="15"/>
<feComposite in2="hardAlpha" operator="out"/>
<feColorMatrix type="matrix" values="0 0 0 0 0 0 0 0 0 0 0 0 0 0 0 0 0 0 0.08 0"/>
<feBlend mode="normal" in2="BackgroundImageFix" result="effect1_dropShadow_6937_80"/>
<feBlend mode="normal" in="SourceGraphic" in2="effect1_dropShadow_6937_80" result="shape"/>
</filter>
<filter id="filter1_d_6937_80" x="551.451" y="6.98291" width="100" height="100" filterUnits="userSpaceOnUse" color-interpolation-filters="sRGB">
<feFlood flood-opacity="0" result="BackgroundImageFix"/>
<feColorMatrix in="SourceAlpha" type="matrix" values="0 0 0 0 0 0 0 0 0 0 0 0 0 0 0 0 0 0 127 0" result="hardAlpha"/>
<feOffset dy="8"/>
<feGaussianBlur stdDeviation="15"/>
<feComposite in2="hardAlpha" operator="out"/>
<feColorMatrix type="matrix" values="0 0 0 0 0 0 0 0 0 0 0 0 0 0 0 0 0 0 0.08 0"/>
<feBlend mode="normal" in2="BackgroundImageFix" result="effect1_dropShadow_6937_80"/>
<feBlend mode="normal" in="SourceGraphic" in2="effect1_dropShadow_6937_80" result="shape"/>
</filter>
<filter id="filter2_d_6937_80" x="969.777" y="6.98291" width="100" height="100" filterUnits="userSpaceOnUse" color-interpolation-filters="sRGB">
<feFlood flood-opacity="0" result="BackgroundImageFix"/>
<feColorMatrix in="SourceAlpha" type="matrix" values="0 0 0 0 0 0 0 0 0 0 0 0 0 0 0 0 0 0 127 0" result="hardAlpha"/>
<feOffset dy="8"/>
<feGaussianBlur stdDeviation="15"/>
<feComposite in2="hardAlpha" operator="out"/>
<feColorMatrix type="matrix" values="0 0 0 0 0 0 0 0 0 0 0 0 0 0 0 0 0 0 0.08 0"/>
<feBlend mode="normal" in2="BackgroundImageFix" result="effect1_dropShadow_6937_80"/>
<feBlend mode="normal" in="SourceGraphic" in2="effect1_dropShadow_6937_80" result="shape"/>
</filter>
</defs>
</svg>
